<svg width="32" height="32" viewBox="0 0 32 32" fill="none" xmlns="http://www.w3.org/2000/svg">
<path d="M26.3475 4.90625L10.0662 2.03125C9.54394 1.93934 9.00652 2.05863 8.57216 2.3629C8.1378 2.66716 7.84207 3.13148 7.74999 3.65375L4.03124 24.7788C3.98576 25.0375 3.99172 25.3028 4.04878 25.5593C4.10584 25.8158 4.21288 26.0585 4.36379 26.2736C4.5147 26.4887 4.70652 26.672 4.92829 26.8129C5.15005 26.9538 5.39742 27.0497 5.65624 27.095L21.9375 29.97C22.1964 30.0157 22.4617 30.0098 22.7184 29.9529C22.975 29.8959 23.2179 29.7889 23.4331 29.638C23.6484 29.487 23.8318 29.2952 23.9728 29.0733C24.1138 28.8514 24.2097 28.604 24.255 28.345L27.9737 7.22C28.0648 6.69753 27.9447 6.16027 27.6397 5.72637C27.3348 5.29248 26.8699 4.99748 26.3475 4.90625ZM22.2825 28L5.99999 25.125L9.71874 4L26 6.875L22.2825 28ZM11.1675 7.3025C11.2138 7.04147 11.3619 6.80951 11.5792 6.65762C11.7965 6.50573 12.0652 6.44634 12.3262 6.4925L22.7012 8.32375C22.9478 8.36694 23.1692 8.50105 23.3217 8.69956C23.4742 8.89808 23.5467 9.14657 23.5249 9.39595C23.5031 9.64532 23.3885 9.87744 23.2038 10.0464C23.0192 10.2155 22.7778 10.3091 22.5275 10.3088C22.4688 10.3087 22.4103 10.3037 22.3525 10.2938L11.9775 8.46125C11.7165 8.41493 11.4845 8.26685 11.3326 8.04956C11.1807 7.83227 11.1213 7.56356 11.1675 7.3025ZM10.475 11.2425C10.4978 11.1131 10.5458 10.9895 10.6164 10.8787C10.687 10.768 10.7787 10.6722 10.8863 10.5968C10.9939 10.5215 11.1153 10.4681 11.2436 10.4397C11.3718 10.4113 11.5044 10.4084 11.6337 10.4313L22.0087 12.2638C22.2571 12.3053 22.4806 12.4389 22.6346 12.638C22.7887 12.8371 22.862 13.087 22.8399 13.3378C22.8178 13.5886 22.702 13.8218 22.5154 13.9909C22.3289 14.16 22.0855 14.2525 21.8337 14.25C21.7746 14.2501 21.7156 14.2447 21.6575 14.2338L11.2825 12.4025C11.0217 12.3556 10.7901 12.2071 10.6387 11.9896C10.4873 11.7721 10.4284 11.5034 10.475 11.2425ZM9.78124 15.1813C9.82843 14.9209 9.97688 14.6899 10.1941 14.5388C10.4113 14.3876 10.6795 14.3288 10.94 14.375L16.125 15.2863C16.3715 15.3294 16.5928 15.4634 16.7453 15.6618C16.8978 15.8602 16.9703 16.1085 16.9487 16.3578C16.927 16.6071 16.8127 16.8392 16.6283 17.0083C16.4438 17.1774 16.2027 17.2712 15.9525 17.2713C15.8938 17.2712 15.8353 17.2662 15.7775 17.2563L10.59 16.34C10.3292 16.2934 10.0975 16.1452 9.94591 15.9279C9.79427 15.7107 9.73505 15.4421 9.78124 15.1813Z" fill="#343330"/>
</svg>
