<?xml version="1.0" encoding="utf-8"?>
<!-- Generator: Adobe Illustrator 27.5.0, SVG Export Plug-In . SVG Version: 6.00 Build 0)  -->
<svg version="1.1" xmlns="http://www.w3.org/2000/svg" xmlns:xlink="http://www.w3.org/1999/xlink" x="0px" y="0px"
	 viewBox="0 0 1200 1200" style="enable-background:new 0 0 1200 1200;" xml:space="preserve">
<g id="Background">
	<linearGradient id="SVGID_1_" gradientUnits="userSpaceOnUse" x1="0" y1="1200" x2="1200" y2="4.547474e-13">
		<stop  offset="0" style="stop-color:#E9E9E9"/>
		<stop  offset="0.9996" style="stop-color:#DFDFDF"/>
	</linearGradient>
	<rect style="fill:url(#SVGID_1_);" width="1200" height="1200"/>
</g>
<g id="Graphic_Elements">
	<g>
		<defs>
			<rect id="SVGID_00000010292633336053153460000006878926252889736611_" width="1200" height="1200"/>
		</defs>
		<clipPath id="SVGID_00000049206006250847464680000012481316069162712233_">
			<use xlink:href="#SVGID_00000010292633336053153460000006878926252889736611_"  style="overflow:visible;"/>
		</clipPath>
		<g style="clip-path:url(#SVGID_00000049206006250847464680000012481316069162712233_);">
			<g>
				
					<linearGradient id="SVGID_00000087389674771604822980000004827970090127693759_" gradientUnits="userSpaceOnUse" x1="828.17" y1="57.4484" x2="1492.0243" y2="57.4484">
					<stop  offset="0" style="stop-color:#D2D2D2"/>
					<stop  offset="1" style="stop-color:#E0E0E0"/>
				</linearGradient>
				<path style="fill:url(#SVGID_00000087389674771604822980000004827970090127693759_);" d="M1484.61-44.201l-0.434-0.434
					c-9.888-9.885-25.916-9.884-35.802,0.002l-4.25,4.25c-9.887,9.886-25.915,9.887-35.802,0.002l-0.434-0.434
					c-9.888-9.885-25.917-9.884-35.803,0.002l-38.328,38.328c-10.006,10.006-26.229,10.006-36.235,0l0,0
					c-10.006-10.006-10.006-26.229,0-36.235l56.647-56.647c9.886-9.886,9.886-25.915-0.001-35.8l-0.434-0.434
					c-9.887-9.886-25.916-9.885-35.802,0.001L1193.27-6.937c-10.006,10.006-26.229,10.006-36.235,0l0,0
					c-10.006-10.006-10.006-26.229,0-36.235l124.662-124.662c9.886-9.886,9.886-25.915,0-35.801l-0.434-0.434
					c-9.887-9.886-25.916-9.885-35.802,0.001L960.12,81.273c-10.006,10.006-10.006,26.229,0,36.235h0
					c10.006,10.006,10.006,26.229,0,36.235L835.674,278.188c-10.006,10.006-10.006,26.229,0,36.235v0
					c10.006,10.006,26.229,10.006,36.235,0l124.446-124.445c10.006-10.006,26.229-10.006,36.235,0l0,0
					c10.006,10.006,10.006,26.229,0,36.235l-56.429,56.429c-10.006,10.006-10.006,26.229,0,36.235v0
					c10.006,10.006,26.229,10.006,36.235,0l38.114-38.114c10.006-10.006,26.229-10.006,36.235,0v0
					c10.006,10.006,26.229,10.006,36.235,0l3.82-3.82c10.006-10.006,26.229-10.006,36.235,0v0c10.006,10.006,26.229,10.006,36.235,0
					L1484.61-8.4C1494.496-18.286,1494.496-34.315,1484.61-44.201z"/>
				
					<linearGradient id="SVGID_00000137123372054597934410000000135596116492142209_" gradientUnits="userSpaceOnUse" x1="650.1436" y1="-148.6156" x2="1239.3657" y2="-148.6156">
					<stop  offset="0" style="stop-color:#B8B8B8"/>
					<stop  offset="1" style="stop-color:#E0E0E0"/>
				</linearGradient>
				<path style="fill:url(#SVGID_00000137123372054597934410000000135596116492142209_);" d="M944.755-65.213L944.755-65.213
					c9.784,9.784,9.784,25.647,0,35.432l-74.683,74.683c-9.784,9.784-9.784,25.647,0,35.432l0,0c9.784,9.784,9.784,25.647,0,35.431
					l-15.668,15.668c-9.784,9.784-9.784,25.647,0,35.432l0,0c9.784,9.784,25.648,9.784,35.432,0l251.841-251.841
					c9.784-9.784,9.784-25.647,0-35.432l0,0c-9.784-9.784-9.784-25.647,0-35.431l15.667-15.668c9.784-9.784,9.784-25.647,0-35.431v0
					c-9.784-9.784-9.784-25.647,0-35.432l74.683-74.683c9.784-9.784,9.784-25.647,0-35.431l0,0c-9.784-9.784-25.647-9.784-35.432,0
					l-41.909,41.909c-9.784,9.784-25.647,9.784-35.432,0h0c-9.784-9.784-25.647-9.784-35.432,0l-54.642,54.642
					c-9.784,9.784-25.647,9.784-35.432,0v0c-9.784-9.784-9.784-25.647,0-35.431l21.868-21.868c9.784-9.784,9.784-25.647,0-35.431
					l0,0c-9.784-9.784-9.784-25.647,0-35.432l44.566-44.566c9.784-9.784,9.784-25.647,0-35.431l0,0
					c-9.784-9.784-25.647-9.784-35.432,0l-44.566,44.566c-9.784,9.784-25.647,9.784-35.432,0l0,0
					c-9.784-9.784-25.647-9.784-35.432,0L657.482-167.688c-9.784,9.784-9.784,25.647,0,35.431l0,0
					c9.784,9.784,25.647,9.784,35.431,0l44.566-44.566c9.784-9.784,25.647-9.784,35.432,0l0,0c9.784,9.784,9.784,25.647,0,35.432
					l-44.566,44.566c-9.784,9.784-9.784,25.647,0,35.431v0c9.784,9.784,9.784,25.647,0,35.432L706.477-4.093
					c-9.784,9.784-9.784,25.647,0,35.432l0,0c9.784,9.784,25.647,9.784,35.431,0l54.642-54.642c9.784-9.784,25.647-9.784,35.431,0h0
					c9.784,9.784,25.647,9.784,35.432,0l41.909-41.909C919.107-74.997,934.971-74.997,944.755-65.213z"/>
				
					<linearGradient id="SVGID_00000111158112332352478420000000759081583348478087_" gradientUnits="userSpaceOnUse" x1="1114.5454" y1="326.38" x2="1165.7889" y2="326.38">
					<stop  offset="0" style="stop-color:#B0B0B0"/>
					<stop  offset="1" style="stop-color:#E0E0E0"/>
				</linearGradient>
				<circle style="fill:url(#SVGID_00000111158112332352478420000000759081583348478087_);" cx="1140.167" cy="326.38" r="25.622"/>
				
					<linearGradient id="SVGID_00000039829133575413192940000001558362032078131897_" gradientUnits="userSpaceOnUse" x1="657.9357" y1="62.9306" x2="709.1794" y2="62.9306">
					<stop  offset="0" style="stop-color:#B8B8B8"/>
					<stop  offset="1" style="stop-color:#E0E0E0"/>
				</linearGradient>
				<circle style="fill:url(#SVGID_00000039829133575413192940000001558362032078131897_);" cx="683.558" cy="62.931" r="25.622"/>
			</g>
			<g>
				
					<linearGradient id="SVGID_00000157281709582063217390000010271529825615218057_" gradientUnits="userSpaceOnUse" x1="-240.5389" y1="880.0353" x2="348.683" y2="880.0353">
					<stop  offset="0" style="stop-color:#A8A8A8"/>
					<stop  offset="1" style="stop-color:#D2D2D2"/>
				</linearGradient>
				<path style="fill:url(#SVGID_00000157281709582063217390000010271529825615218057_);" d="M-12.336,963.438L-12.336,963.438
					c9.784,9.784,9.784,25.648,0,35.432l-74.683,74.683c-9.784,9.784-9.784,25.647,0,35.432h0c9.784,9.784,9.784,25.647,0,35.432
					l-15.668,15.667c-9.784,9.784-9.784,25.647,0,35.432l0,0c9.784,9.784,25.647,9.784,35.431,0l251.841-251.841
					c9.784-9.784,9.784-25.647,0-35.432l0,0c-9.784-9.784-9.784-25.647,0-35.431l15.667-15.668c9.784-9.784,9.784-25.647,0-35.432v0
					c-9.784-9.784-9.784-25.647,0-35.432l74.683-74.683c9.784-9.784,9.784-25.647,0-35.432l0,0c-9.784-9.784-25.647-9.784-35.431,0
					l-41.909,41.909c-9.784,9.784-25.647,9.784-35.431,0l0,0c-9.784-9.784-25.647-9.784-35.432,0l-54.642,54.642
					c-9.784,9.784-25.647,9.784-35.431,0l0,0c-9.784-9.784-9.784-25.647,0-35.432l21.868-21.868c9.784-9.784,9.784-25.647,0-35.432
					h0c-9.784-9.784-9.784-25.647,0-35.432l44.566-44.566c9.784-9.784,9.784-25.647,0-35.431v0c-9.784-9.784-25.647-9.784-35.432,0
					l-44.566,44.566c-9.784,9.784-25.647,9.784-35.432,0l0,0c-9.784-9.784-25.647-9.784-35.431,0l-251.841,251.841
					c-9.784,9.784-9.784,25.647,0,35.431l0,0c9.784,9.784,25.647,9.784,35.432,0l44.566-44.566c9.784-9.784,25.647-9.784,35.432,0h0
					c9.784,9.784,9.784,25.647,0,35.432l-44.566,44.566c-9.784,9.784-9.784,25.647,0,35.432l0,0c9.784,9.784,9.784,25.647,0,35.431
					l-21.868,21.868c-9.784,9.784-9.784,25.647,0,35.432h0c9.784,9.784,25.647,9.784,35.432,0l54.642-54.642
					c9.784-9.784,25.647-9.784,35.432,0l0,0c9.784,9.784,25.647,9.784,35.432,0l41.909-41.909
					C-37.983,953.654-22.12,953.654-12.336,963.438z"/>
				
					<linearGradient id="SVGID_00000091013419477151184540000017002485855082767805_" gradientUnits="userSpaceOnUse" x1="262.3492" y1="1328.6722" x2="782.5556" y2="1328.6722">
					<stop  offset="0" style="stop-color:#E0E0E0"/>
					<stop  offset="1" style="stop-color:#B0B0B0"/>
				</linearGradient>
				<path style="fill:url(#SVGID_00000091013419477151184540000017002485855082767805_);" d="M288.108,1392.475l-18.254,18.255
					c-10.006,10.006-10.006,26.229,0,36.235h0c10.006,10.006,26.229,10.006,36.235,0l69.948-69.948
					c10.006-10.006,26.229-10.006,36.235,0l0,0c10.006,10.006,10.006,26.229,0,36.235l-69.948,69.948
					c-10.006,10.006-10.006,26.229,0,36.235v0c10.006,10.006,26.229,10.006,36.235,0l38.898-38.899
					c10.006-10.006,26.229-10.006,36.235,0v0c10.006,10.006,10.006,26.229,0,36.235l-69.459,69.459
					c-10.006,10.006-10.006,26.229,0,36.235l0,0c10.006,10.006,26.229,10.006,36.235,0l285.126-285.126
					c10.006-10.006,10.006-26.229,0-36.235l0,0c-10.006-10.006-10.006-26.229,0-36.235l69.459-69.459
					c10.006-10.006,10.006-26.229,0-36.235h0c-10.006-10.006-26.229-10.006-36.235,0l-38.898,38.898
					c-10.006,10.006-26.229,10.006-36.235,0l0,0c-10.006-10.006-10.006-26.229,0-36.235l69.948-69.948
					c10.006-10.006,10.006-26.229,0-36.235l0,0c-10.006-10.006-26.229-10.006-36.235,0l-69.948,69.948
					c-10.006,10.006-26.229,10.006-36.235,0l0,0c-10.006-10.006-10.006-26.229,0-36.235l18.254-18.255
					c10.006-10.006,10.006-26.229,0-36.235h0c-10.006-10.006-26.229-10.006-36.235,0l-285.125,285.126
					c-10.006,10.006-10.006,26.229,0,36.235v0C298.114,1366.246,298.114,1382.469,288.108,1392.475z"/>
				
					<linearGradient id="SVGID_00000047773314189856925610000001955328308054417057_" gradientUnits="userSpaceOnUse" x1="9.7402" y1="1285.306" x2="538.5546" y2="1285.306">
					<stop  offset="0" style="stop-color:#E0E0E0"/>
					<stop  offset="1" style="stop-color:#B0B0B0"/>
				</linearGradient>
				<path style="fill:url(#SVGID_00000047773314189856925610000001955328308054417057_);" d="M147.181,1521.982l26.147-26.147
					c10.006-10.006,26.229-10.006,36.235,0l0,0c10.006,10.006,26.229,10.006,36.235,0l285.343-285.343
					c9.886-9.886,9.886-25.915,0-35.801l-0.434-0.434c-9.886-9.886-25.915-9.886-35.801,0l-26.364,26.364
					c-10.006,10.006-26.229,10.006-36.235,0l0,0c-10.006-10.006-10.006-26.229,0-36.235l7.576-7.576
					c9.886-9.886,9.886-25.915,0-35.801l-0.434-0.434c-9.886-9.886-9.886-25.915,0-35.801h0c9.886-9.886,9.886-25.915,0-35.801
					l-0.434-0.434c-9.886-9.886-25.915-9.886-35.801,0l-28.592,28.592c-9.886,9.886-25.915,9.886-35.801,0l-0.434-0.434
					c-9.886-9.886-25.915-9.886-35.801,0L17.245,1362.041c-10.006,10.006-10.006,26.229,0,36.235h0
					c10.006,10.006,26.229,10.006,36.235,0l28.592-28.592c9.766-9.766,25.601-9.766,35.367,0l0.868,0.867
					c9.766,9.766,9.766,25.601,0,35.367h0c-10.006,10.006-10.006,26.229,0,36.235l0,0c10.006,10.006,10.006,26.229,0,36.235
					l-7.359,7.359c-10.006,10.006-10.006,26.229,0,36.235h0C120.952,1531.988,137.175,1531.988,147.181,1521.982z"/>
				
					<linearGradient id="SVGID_00000047055083952859249810000016756095163210676627_" gradientUnits="userSpaceOnUse" x1="160.5803" y1="680.3226" x2="211.8241" y2="680.3226">
					<stop  offset="0" style="stop-color:#B8B8B8"/>
					<stop  offset="1" style="stop-color:#E0E0E0"/>
				</linearGradient>
				<circle style="fill:url(#SVGID_00000047055083952859249810000016756095163210676627_);" cx="186.202" cy="680.323" r="25.622"/>
				
					<linearGradient id="SVGID_00000065779896165739039570000008524603836330129824_" gradientUnits="userSpaceOnUse" x1="771.77" y1="969.9833" x2="1435.6241" y2="969.9833" gradientTransform="matrix(0 1 1 0 -204.855 204.855)">
					<stop  offset="0" style="stop-color:#B8B8B8"/>
					<stop  offset="1" style="stop-color:#E0E0E0"/>
				</linearGradient>
				<path style="fill:url(#SVGID_00000065779896165739039570000008524603836330129824_);" d="M663.479,1633.065l-0.434-0.434
					c-9.885-9.887-9.884-25.916,0.002-35.802l4.25-4.25c9.886-9.887,9.887-25.915,0.002-35.802l-0.434-0.434
					c-9.885-9.888-9.884-25.917,0.002-35.803l38.328-38.328c10.006-10.006,10.006-26.229,0-36.234l0,0
					c-10.006-10.006-26.229-10.006-36.235,0l-56.647,56.647c-9.886,9.886-25.914,9.886-35.8-0.001l-0.434-0.434
					c-9.886-9.887-9.885-25.916,0.001-35.802l124.661-124.661c10.006-10.006,10.006-26.229,0-36.235l0,0
					c-10.006-10.006-26.229-10.006-36.235,0l-124.662,124.662c-9.886,9.886-25.915,9.886-35.801,0l-0.434-0.434
					c-9.886-9.887-9.885-25.916,0.001-35.802l285.341-285.341c10.006-10.006,26.229-10.006,36.235,0v0
					c10.006,10.006,26.229,10.006,36.235,0l124.445-124.446c10.006-10.006,26.229-10.006,36.235,0l0,0
					c10.006,10.006,10.006,26.229,0,36.235L897.657,1144.81c-10.006,10.006-10.006,26.229,0,36.235l0,0
					c10.006,10.006,26.229,10.006,36.235,0l56.429-56.429c10.006-10.006,26.229-10.006,36.235,0h0
					c10.006,10.006,10.006,26.229,0,36.235l-38.114,38.114c-10.006,10.006-10.006,26.229,0,36.235l0,0
					c10.006,10.006,10.006,26.229,0,36.235l-3.82,3.82c-10.006,10.006-10.006,26.229,0,36.235h0
					c10.006,10.006,10.006,26.229,0,36.235L699.28,1633.065C689.394,1642.951,673.365,1642.951,663.479,1633.065z"/>
				
					<linearGradient id="SVGID_00000158000935833964926000000007626271557846141622_" gradientUnits="userSpaceOnUse" x1="820.7682" y1="1076.8665" x2="872.012" y2="1076.8665">
					<stop  offset="0" style="stop-color:#B0B0B0"/>
					<stop  offset="1" style="stop-color:#E0E0E0"/>
				</linearGradient>
				<circle style="fill:url(#SVGID_00000158000935833964926000000007626271557846141622_);" cx="846.39" cy="1076.866" r="25.622"/>
				
					<linearGradient id="SVGID_00000096021730162301139310000000714340563346365347_" gradientUnits="userSpaceOnUse" x1="-322.239" y1="1269.7821" x2="336.7773" y2="1269.7821">
					<stop  offset="0" style="stop-color:#E0E0E0"/>
					<stop  offset="1" style="stop-color:#B8B8B8"/>
				</linearGradient>
				<path style="fill:url(#SVGID_00000096021730162301139310000000714340563346365347_);" d="M-174.912,1340.701l-139.822,139.822
					c-10.006,10.006-10.006,26.229,0,36.235l0,0c10.006,10.006,26.229,10.006,36.235,0l55.709-55.709
					c10.006-10.006,26.229-10.006,36.235,0l0,0c10.006,10.006,10.006,26.229,0,36.235l-78.358,78.358
					c-10.006,10.006-10.006,26.229,0,36.235l0,0c10.006,10.006,26.229,10.006,36.235,0l16.221-16.221
					c10.006-10.006,26.229-10.006,36.235,0l0,0c10.006,10.006,26.229,10.006,36.235,0l34.481-34.481
					c10.006-10.006,26.229-10.006,36.235,0l0.877,0.877c9.522,9.522,9.522,24.96,0,34.481v0c-10.006,10.006-10.006,26.229,0,36.235
					l0,0c10.006,10.006,26.229,10.006,36.235,0l361.617-361.617c9.764-9.764,9.764-25.594,0-35.358l-0.877-0.877
					c-9.764-9.764-9.764-25.594,0-35.358l0,0c9.764-9.764,9.764-25.594,0-35.358l-0.877-0.877c-9.764-9.764-25.594-9.764-35.358,0
					l-35.358,35.358c-9.764,9.764-25.594,9.764-35.358,0l-0.877-0.877c-9.764-9.764-25.594-9.764-35.358,0l-16.659,16.659
					c-10.006,10.006-26.229,10.006-36.235,0l0,0c-10.006-10.006-10.006-26.229,0-36.235l78.797-78.797
					c9.764-9.764,9.764-25.594,0-35.358l-0.877-0.877c-9.764-9.764-25.594-9.764-35.358,0l-56.147,56.147
					c-10.006,10.006-26.229,10.006-36.235,0l0,0c-10.006-10.006-10.006-26.229,0-36.235l140.26-140.261
					c9.764-9.764,9.764-25.594,0-35.358l-0.877-0.877c-9.764-9.764-25.594-9.764-35.358,0l-361.617,361.617
					c-10.006,10.006-10.006,26.229,0,36.235l0,0C-164.906,1314.472-164.906,1330.695-174.912,1340.701z"/>
				
					<linearGradient id="SVGID_00000055666546101858216910000001011739578023071153_" gradientUnits="userSpaceOnUse" x1="209.405" y1="1038.6547" x2="260.6486" y2="1038.6547">
					<stop  offset="0" style="stop-color:#B0B0B0"/>
					<stop  offset="1" style="stop-color:#E0E0E0"/>
				</linearGradient>
				
					<circle style="fill:url(#SVGID_00000055666546101858216910000001011739578023071153_);" cx="235.027" cy="1038.655" r="25.622"/>
			</g>
		</g>
	</g>
</g>
</svg>
